<svg width="275" height="48" viewBox="0 0 275 48" fill="none" xmlns="http://www.w3.org/2000/svg">
<g clip-path="url(#clip0_3435_46891)">
<path d="M30.9587 8.89453H14.0775C13.5388 8.89453 13.0449 9.60127 13.0449 10.52V13.4883C13.0449 14.4071 13.5388 15.1845 14.0775 15.1845H30.9587C31.5424 15.1845 31.9914 14.4071 32.0363 13.4883V10.5907C32.0363 9.60127 31.5424 8.89453 30.9587 8.89453ZM30.9587 25.5735H14.0775C13.8081 25.5735 13.5388 25.7855 13.3143 26.0682C13.1347 26.3509 13 26.775 13 27.2697V30.238C13 31.1567 13.4939 31.9341 14.0326 31.9341H30.9138C31.4975 31.9341 31.9465 31.2274 31.9914 30.238V27.2697C32.0363 26.2802 31.5424 25.5735 30.9587 25.5735ZM23.5957 33.8423H14.0775C13.8081 33.8423 13.5388 33.9837 13.3592 34.337C13.1796 34.6197 13.0449 35.0438 13.0449 35.5385V38.5068C13.0449 39.4255 13.5388 40.2029 14.0775 40.2029H23.5508C24.1344 40.2029 24.5834 39.4255 24.5834 38.5068V35.4678C24.6283 34.6197 24.1793 33.8423 23.5957 33.8423ZM32.0363 17.234H14.0775C13.8081 17.234 13.5388 17.3754 13.3592 17.7287C13.1796 18.0114 13.0449 18.4355 13.0449 18.9302V21.8985C13.0449 22.8172 13.5388 23.5946 14.0775 23.5946H31.9914C32.575 23.5946 33.024 22.8172 33.024 21.8985V18.9302C33.0689 17.9408 32.6199 17.234 32.0363 17.234Z" fill="#00C3F7"/>
<path d="M51.6563 15.6063C51.1175 14.7582 50.5339 14.1222 49.8155 13.6275C49.1421 13.1327 48.3788 12.9207 47.6156 12.9207C46.8972 12.9207 46.1789 13.1327 45.5054 13.6275C45.0565 13.9808 44.6524 14.4049 44.3381 14.9703V14.4755C44.3381 14.1929 44.2483 13.9808 44.1585 13.7688C44.0238 13.5568 43.8892 13.4154 43.7096 13.4154H41.33C41.1504 13.4154 40.9709 13.5568 40.8811 13.7688C40.7464 13.9808 40.7015 14.1929 40.7015 14.4755V39.2113C40.7015 39.494 40.7913 39.706 40.8811 39.918C41.0158 40.1301 41.1504 40.2007 41.33 40.2007H43.7096C43.8892 40.2007 44.0238 40.1301 44.1585 39.918C44.2932 39.706 44.3381 39.494 44.3381 39.2113V30.7305C44.6973 31.2959 45.1014 31.7906 45.5952 32.0026C46.2238 32.356 46.8972 32.568 47.5258 32.568C48.289 32.568 49.0523 32.356 49.7257 31.8612C50.4441 31.4372 51.0726 30.7305 51.5665 29.8824C52.1053 28.9636 52.5542 27.9035 52.8236 26.7728C53.1379 25.5006 53.3175 24.0872 53.2726 22.7444C53.2726 21.3309 53.1379 19.9881 52.8236 18.6453C52.644 17.5852 52.1951 16.5251 51.6563 15.6063ZM49.5462 24.5819C49.4115 25.0766 49.2319 25.5713 49.0074 25.9953C48.5135 26.8434 47.8401 27.2675 47.1217 27.2675C46.7625 27.2675 46.4034 27.1261 46.0891 26.9141C45.7748 26.7021 45.4605 26.3487 45.2361 25.9953C45.0116 25.5713 44.7871 25.0766 44.6524 24.5819C44.383 23.4511 44.383 22.2496 44.6524 21.1189C44.7871 20.6241 44.9667 20.1294 45.2361 19.7054C45.5054 19.2814 45.7748 18.9987 46.0891 18.716C46.4034 18.5039 46.7625 18.3626 47.1217 18.3626C47.4809 18.3626 47.8401 18.5039 48.1992 18.716C48.5135 18.928 48.7829 19.2814 49.0523 19.6347C49.2768 20.0588 49.4564 20.4828 49.591 21.0482C49.8155 22.179 49.8155 23.4511 49.5462 24.5819ZM66.2478 13.4861H63.8682C63.6886 13.4861 63.554 13.6275 63.4193 13.7688C63.2846 13.9808 63.2397 14.2635 63.2397 14.5462V14.9703C62.9254 14.4049 62.5662 13.9808 62.1622 13.6981C61.5336 13.2034 60.8153 12.9914 60.0969 12.9914C58.5704 12.9914 57.0888 13.9808 56.0113 15.677C55.4725 16.5958 55.0236 17.6559 54.7093 18.7866C54.3501 20.0588 54.2154 21.4722 54.2154 22.8857C54.2154 24.2992 54.3501 25.7126 54.7093 26.9848C55.0236 28.1155 55.4725 29.1757 56.0113 30.0944C57.0888 31.7906 58.5255 32.78 60.052 32.78C60.7704 32.78 61.4887 32.568 62.1173 32.0733C62.5213 31.7199 62.9254 31.2959 63.1948 30.8011V31.2959C63.1948 31.5786 63.2846 31.7906 63.3744 32.0026C63.5091 32.1439 63.6437 32.2853 63.8233 32.2853H66.2029C66.3825 32.2853 66.5171 32.1439 66.6518 32.0026C66.7865 31.7906 66.8314 31.5786 66.8314 31.2959V14.5462C66.8314 14.2635 66.7865 14.0515 66.6518 13.8395C66.562 13.5568 66.4274 13.4861 66.2478 13.4861ZM63.0152 24.5112C62.8805 25.0059 62.7009 25.5006 62.4764 25.9247C62.2519 26.278 61.9377 26.6314 61.6234 26.9141C60.9499 27.4088 60.1867 27.4088 59.5132 26.9141C59.199 26.7021 58.8847 26.3487 58.6602 25.9247C58.4357 25.5006 58.2112 25.0059 58.1214 24.5112C57.8521 23.3804 57.8521 22.179 58.1214 21.0482C58.2561 20.5535 58.4357 20.0588 58.6602 19.6347C58.8847 19.2107 59.199 18.928 59.5132 18.6453C60.1867 18.1506 60.9499 18.1506 61.6234 18.6453C61.9377 18.8573 62.2071 19.2107 62.4764 19.564C62.7009 19.9881 62.8805 20.4121 63.0152 20.9775C63.3295 22.179 63.3295 23.4511 63.0152 24.5112ZM89.9084 22.3203C89.5492 21.8256 89.19 21.4722 88.7411 21.1895C88.2921 20.9068 87.8431 20.6948 87.3493 20.5535L85.5534 19.9881C85.1044 19.8467 84.7453 19.6347 84.5657 19.4227C84.431 19.2814 84.3412 18.9987 84.3412 18.716C84.3412 18.4333 84.431 18.1506 84.7004 17.9386C85.0146 17.6559 85.3738 17.5145 85.6881 17.5852C86.1371 17.5852 86.6309 17.7265 87.035 18.0092C87.4391 18.2919 87.8431 18.6453 88.2023 18.9987C88.7411 19.4934 89.19 19.4227 89.5043 18.8573L90.3574 17.3025C90.5369 17.0198 90.6267 16.6664 90.6267 16.3131C90.6267 15.9597 90.492 15.5356 90.3125 15.3236C89.9533 14.8289 89.3696 14.2635 88.5615 13.7688C87.7982 13.2741 86.8105 12.9914 85.6432 12.9914C84.9248 12.9914 84.2514 13.1327 83.5779 13.4861C82.9943 13.7688 82.4555 14.1929 82.0065 14.7582C81.5576 15.253 81.2433 15.9597 80.9739 16.7371C80.7494 17.5145 80.6147 18.2919 80.6147 19.14C80.6147 20.6948 80.929 21.9669 81.5127 22.8857C82.0963 23.8045 82.8596 24.4405 83.8473 24.7232L85.733 25.3593C86.1371 25.5006 86.5411 25.642 86.9452 25.9247C87.1697 26.066 87.3044 26.3487 87.3044 26.7728C87.3044 27.1261 87.2146 27.4088 86.9452 27.6915C86.7207 27.9742 86.3166 28.1155 85.8228 28.1155C85.3289 28.1155 84.7901 27.9742 84.3412 27.6208C83.8922 27.2675 83.4881 26.8434 83.129 26.3487C82.9494 26.1367 82.7698 25.9953 82.5902 25.854C82.3657 25.7833 82.0963 25.854 81.827 26.2074L80.7943 27.4795C80.5249 27.8329 80.3454 28.3982 80.4352 28.893C80.4801 29.4583 80.7943 29.9531 81.2882 30.5891C82.5902 32.0026 84.1616 32.7093 85.733 32.6387C86.4513 32.6387 87.2146 32.4973 87.888 32.1439C88.5166 31.8612 89.0553 31.4372 89.5492 30.8011C89.9982 30.2358 90.4023 29.529 90.6267 28.7516C90.8961 27.9742 90.9859 27.1261 90.9859 26.2074C90.9859 25.43 90.8961 24.6525 90.6716 23.8751C90.492 23.3804 90.2227 22.815 89.9084 22.3203ZM100.235 26.8434C100.145 26.5607 99.9204 26.3487 99.6959 26.278C99.4714 26.278 99.2469 26.4194 99.0673 26.5607C98.798 26.8434 98.4388 27.0554 98.0796 27.0554C97.9898 27.0554 97.8551 27.0554 97.7204 26.9848C97.5857 26.9848 97.4959 26.8434 97.4062 26.7021C97.3164 26.5607 97.2266 26.3487 97.1368 26.1367C97.047 25.854 97.0021 25.5006 97.047 25.1473V18.3626H100.145C100.324 18.3626 100.504 18.2212 100.639 18.0092C100.773 17.7972 100.863 17.5852 100.863 17.3025V14.4049C100.863 14.1222 100.773 13.8395 100.639 13.6981C100.504 13.4861 100.369 13.4154 100.19 13.4154H97.0919V8.82166C97.0919 8.53896 97.047 8.25627 96.9123 8.11492C96.7776 7.9029 96.6429 7.83223 96.4633 7.83223H94.0838C93.9042 7.83223 93.7246 7.9029 93.6348 8.11492C93.5001 8.32694 93.4552 8.60964 93.4552 8.82166V13.4861H92.1083C91.9287 13.4861 91.7492 13.6275 91.6594 13.8395C91.5247 14.0515 91.4798 14.2635 91.4798 14.5462V17.4438C91.4798 17.7265 91.5247 17.9386 91.6594 18.1506C91.7492 18.3626 91.9287 18.5039 92.1083 18.5039H93.4552V26.5607C93.4552 27.5502 93.545 28.4689 93.8144 29.317C94.0389 30.0237 94.3532 30.6598 94.7123 31.1545C95.0715 31.6492 95.5205 32.0026 96.0144 32.2146C96.5082 32.4266 97.0021 32.568 97.4959 32.568C98.1694 32.568 98.798 32.4266 99.4265 32.0733C100.01 31.7906 100.549 31.2252 100.953 30.5891C101.222 30.1651 101.267 29.4583 101.043 28.9636L100.235 26.8434ZM113.255 13.4861H110.875C110.696 13.4861 110.561 13.6275 110.426 13.7688C110.292 13.9808 110.247 14.2635 110.247 14.5462V14.9703C109.932 14.4049 109.573 13.9808 109.169 13.6981C108.541 13.2034 107.822 12.9914 107.104 12.9914C105.577 12.9914 104.141 13.9808 103.063 15.677C102.524 16.5958 102.075 17.6559 101.761 18.7866C101.402 20.0588 101.267 21.4722 101.267 22.815C101.267 24.2285 101.402 25.5713 101.761 26.9141C102.075 28.0449 102.524 29.105 103.063 30.0237C104.141 31.7199 105.577 32.7093 107.104 32.7093C107.822 32.7093 108.541 32.4973 109.169 32.0026C109.573 31.6492 109.977 31.2252 110.247 30.7305V31.2252C110.247 31.5079 110.292 31.7199 110.426 31.9319C110.561 32.1439 110.696 32.2146 110.875 32.2146H113.255C113.614 32.2146 113.883 31.7906 113.883 31.2252V14.5462C113.883 14.2635 113.838 14.0515 113.704 13.8395C113.569 13.5568 113.434 13.4861 113.255 13.4861ZM110.022 24.5112C109.887 25.0059 109.708 25.5006 109.483 25.9247C109.214 26.278 108.945 26.6314 108.63 26.9141C108.316 27.1261 107.912 27.2675 107.553 27.2675C107.194 27.2675 106.834 27.1261 106.52 26.9141C106.206 26.7021 105.892 26.3487 105.667 25.9247C105.443 25.5006 105.218 25.0059 105.128 24.5112C104.859 23.3804 104.859 22.179 105.128 21.0482C105.263 20.5535 105.443 20.0588 105.667 19.6347C105.937 19.2107 106.206 18.928 106.52 18.6453C106.834 18.4333 107.194 18.2919 107.553 18.2919C107.912 18.2919 108.271 18.4333 108.63 18.6453C108.945 18.8573 109.214 19.2107 109.483 19.564C109.708 19.9881 109.932 20.4121 110.022 20.9775C110.336 22.179 110.336 23.4511 110.022 24.5112ZM126.275 26.5607L124.928 24.9352C124.659 24.5819 124.434 24.5112 124.21 24.6525C124.03 24.7939 123.85 25.0059 123.716 25.2179C123.401 25.7833 123.087 26.278 122.683 26.7021C122.279 27.0554 121.83 27.2675 121.336 27.1968C120.797 27.1968 120.304 26.9848 119.855 26.4901C119.406 25.9953 119.091 25.2886 118.912 24.5112C118.777 23.9458 118.732 23.3804 118.732 22.815C118.732 22.2496 118.777 21.6136 118.912 21.0482C119.046 20.5535 119.226 20.0588 119.45 19.6347C119.72 19.2107 119.989 18.928 120.304 18.716C120.618 18.5039 121.022 18.3626 121.381 18.3626C121.83 18.3626 122.324 18.5039 122.683 18.8573C123.087 19.2814 123.401 19.7761 123.716 20.3415C123.85 20.5535 124.03 20.7655 124.21 20.9068C124.434 21.0482 124.659 20.9775 124.928 20.6241L126.275 18.9987C126.454 18.7866 126.589 18.5746 126.634 18.2919C126.724 17.9386 126.679 17.5852 126.589 17.3025C126.05 16.0304 125.332 14.9703 124.479 14.1929C123.581 13.4154 122.503 12.9914 121.291 12.9914C120.438 12.9914 119.585 13.2741 118.822 13.7688C118.059 14.2635 117.385 14.9703 116.802 15.889C116.218 16.8078 115.769 17.8679 115.455 18.9987C114.826 21.4722 114.826 24.2992 115.455 26.7728C115.769 27.9742 116.218 29.0343 116.802 29.8824C118.014 31.7199 119.585 32.7093 121.291 32.7093C122.503 32.7093 123.581 32.2853 124.479 31.5079C125.332 30.7305 126.05 29.6704 126.589 28.3982C126.724 28.1156 126.724 27.7622 126.634 27.4088C126.544 27.0554 126.41 26.7728 126.275 26.5607ZM138.891 30.4478L135.164 21.7549L138.352 15.1116C138.487 14.8289 138.532 14.4049 138.487 14.0515C138.442 13.7688 138.262 13.4861 137.903 13.4861H135.389C135.254 13.4861 135.119 13.5568 134.985 13.6275C134.805 13.7688 134.715 13.9102 134.626 14.1929L132.066 19.8467H131.438V6.48943C131.438 6.20674 131.393 5.99472 131.258 5.78269C131.124 5.57067 130.989 5.5 130.809 5.5H128.43C128.25 5.5 128.116 5.57067 127.981 5.78269C127.846 5.99472 127.801 6.20674 127.801 6.48943V31.0838C127.801 31.3665 127.891 31.6492 127.981 31.7906C128.116 32.0026 128.25 32.0733 128.43 32.0733H130.809C130.989 32.0733 131.124 31.9319 131.258 31.7906C131.393 31.5786 131.438 31.3665 131.438 31.0838V24.5819H132.111L134.895 31.3665C135.075 31.8612 135.389 32.1439 135.703 32.1439H138.352C138.756 32.1439 138.936 31.8612 138.981 31.5786C139.07 31.2252 139.025 30.8011 138.891 30.4478ZM79.7168 13.4861H77.0679C76.8883 13.4861 76.6638 13.5568 76.5291 13.8395C76.3944 14.0515 76.3046 14.2635 76.3046 14.5462L74.3292 25.9953H73.8353L71.7252 14.4755C71.6803 14.2635 71.6354 13.9808 71.5007 13.7688C71.366 13.5568 71.1864 13.4154 71.0068 13.4154H68.2681C67.9089 13.4154 67.6845 13.6275 67.5947 13.9808C67.5049 14.3342 67.5049 14.6876 67.5947 14.9703L70.9619 31.1545C71.0068 31.3665 71.0966 31.6492 71.2313 31.7906C71.366 32.0026 71.5456 32.0733 71.7252 32.0733H73.1619L73.0272 32.568L72.7129 34.0521C72.6231 34.4762 72.4435 34.9002 72.1741 35.2536C71.9497 35.5363 71.6803 35.6776 71.366 35.6776C71.1415 35.6776 70.8721 35.607 70.6477 35.4656C70.4232 35.3243 70.1987 35.1122 70.0191 34.9002C69.8395 34.6882 69.615 34.6175 69.4354 34.6175H69.3905C69.1212 34.6175 68.8967 34.8295 68.8069 35.1829L67.9538 37.1618C67.5947 38.0098 67.8192 38.5752 68.0436 38.8579C68.4926 39.494 69.0314 39.9887 69.615 40.3421C70.2436 40.6954 70.917 40.8368 71.6354 40.8368C72.8476 40.8368 73.8802 40.3421 74.6435 39.282C75.4516 38.1512 76.0353 36.6671 76.3495 35.0416L80.2556 15.0409C80.3454 14.6876 80.3454 14.3342 80.2556 13.9808C80.2556 13.6981 80.076 13.4861 79.7168 13.4861Z" fill="#011B33"/>
</g>
<path d="M164.645 31.24C163.685 31.24 162.838 31.0667 162.105 30.72C161.385 30.36 160.818 29.8667 160.405 29.24C160.005 28.6 159.805 27.8467 159.805 26.98C159.805 26.0333 160.078 25.1933 160.625 24.46C161.185 23.7133 161.992 23.1267 163.045 22.7C162.592 22.2067 162.265 21.74 162.065 21.3C161.865 20.8467 161.765 20.36 161.765 19.84C161.765 18.9467 162.078 18.2133 162.705 17.64C163.345 17.0533 164.218 16.76 165.325 16.76C166.045 16.76 166.672 16.9 167.205 17.18C167.738 17.4467 168.152 17.82 168.445 18.3C168.738 18.78 168.872 19.3267 168.845 19.94H167.185C167.198 19.34 167.012 18.8867 166.625 18.58C166.252 18.2733 165.818 18.12 165.325 18.12C164.725 18.12 164.258 18.28 163.925 18.6C163.592 18.92 163.425 19.3267 163.425 19.82C163.425 20.2467 163.538 20.66 163.765 21.06C164.005 21.46 164.358 21.9067 164.825 22.4L169.245 26.86C169.632 26.3 170.052 25.6267 170.505 24.84L171.125 23.76H172.905L172.025 25.32C171.438 26.3733 170.878 27.2533 170.345 27.96L173.365 31H171.245L169.385 29.12C168.678 29.88 167.945 30.4267 167.185 30.76C166.425 31.08 165.578 31.24 164.645 31.24ZM161.485 26.92C161.485 27.7467 161.778 28.4333 162.365 28.98C162.952 29.5267 163.718 29.8 164.665 29.8C165.372 29.8 166.012 29.6667 166.585 29.4C167.172 29.12 167.745 28.6667 168.305 28.04L164.065 23.74C163.185 24.0867 162.532 24.5267 162.105 25.06C161.692 25.5933 161.485 26.2133 161.485 26.92Z" fill="black"/>
<path fill-rule="evenodd" clip-rule="evenodd" d="M262.141 24.4282C262.141 19.3657 260.101 15.3711 256.201 15.3711C252.285 15.3711 249.916 19.3657 249.916 24.3886C249.916 30.341 252.713 33.3468 256.728 33.3468C258.686 33.3468 260.166 32.8129 261.285 32.0614V28.1064C260.166 28.7787 258.883 29.194 257.254 29.194C255.658 29.194 254.243 28.5217 254.062 26.1882H262.108C262.108 25.9311 262.141 24.9028 262.141 24.4282ZM254.013 22.5495C254.013 20.3149 255.148 19.3855 256.185 19.3855C257.188 19.3855 258.258 20.3149 258.258 22.5495H254.013Z" fill="#635BFF"/>
<path fill-rule="evenodd" clip-rule="evenodd" d="M243.566 15.3711C241.953 15.3711 240.917 16.2808 240.341 16.9136L240.127 15.6875H236.507V38.7455L240.621 37.6974L240.637 32.101C241.229 32.6151 242.101 33.3468 243.549 33.3468C246.494 33.3468 249.176 30.4992 249.176 24.2304C249.16 18.4956 246.445 15.3711 243.566 15.3711ZM242.578 28.9963C241.608 28.9963 241.032 28.581 240.637 28.0668L240.621 20.7302C241.048 20.1567 241.641 19.7612 242.578 19.7612C244.076 19.7612 245.112 21.7783 245.112 24.3688C245.112 27.0187 244.092 28.9963 242.578 28.9963Z" fill="#635BFF"/>
<path fill-rule="evenodd" clip-rule="evenodd" d="M230.847 14.2033L234.977 13.1355V9.12109L230.847 10.1692V14.2033Z" fill="#635BFF"/>
<path d="M234.977 15.707H230.847V33.0104H234.977V15.707Z" fill="#635BFF"/>
<path fill-rule="evenodd" clip-rule="evenodd" d="M226.421 17.1678L226.158 15.7044H222.604V33.0078H226.717V21.281C227.688 19.7583 229.333 20.0352 229.844 20.2527V15.7044C229.317 15.4671 227.392 15.032 226.421 17.1678Z" fill="#635BFF"/>
<path fill-rule="evenodd" clip-rule="evenodd" d="M218.195 11.4141L214.18 12.4424L214.164 28.2824C214.164 31.2091 215.99 33.3646 218.425 33.3646C219.774 33.3646 220.762 33.068 221.305 32.712V28.6977C220.778 28.9547 218.179 29.8644 218.179 26.9377V19.9174H221.305V15.7053H218.179L218.195 11.4141Z" fill="#635BFF"/>
<path fill-rule="evenodd" clip-rule="evenodd" d="M207.073 20.7302C207.073 19.959 207.599 19.6623 208.471 19.6623C209.722 19.6623 211.301 20.1172 212.551 20.9279V16.2808C211.186 15.6282 209.837 15.3711 208.471 15.3711C205.131 15.3711 202.91 17.4673 202.91 20.9675C202.91 26.4255 209.162 25.5554 209.162 27.9086C209.162 28.8183 208.504 29.1149 207.583 29.1149C206.217 29.1149 204.473 28.4426 203.091 27.5329V32.2394C204.621 33.0304 206.168 33.3666 207.583 33.3666C211.005 33.3666 213.358 31.3297 213.358 27.79C213.341 21.8969 207.073 22.945 207.073 20.7302Z" fill="#635BFF"/>
<defs>
<clipPath id="clip0_3435_46891">
<rect width="135.05" height="37" fill="white" transform="translate(3.97501 5.5)"/>
</clipPath>
</defs>
</svg>
