<svg width="14" height="17" viewBox="0 0 14 17" fill="none" xmlns="http://www.w3.org/2000/svg">
<path d="M10.9379 8.55756C10.9196 6.52461 12.6029 5.53557 12.6799 5.48953C11.7265 4.09996 10.2489 3.9101 9.72963 3.89496C8.48859 3.76439 7.28478 4.63737 6.65258 4.63737C6.00777 4.63737 5.03425 3.90757 3.98501 3.92902C2.63482 3.94984 1.3717 4.73135 0.678941 5.94494C-0.750746 8.41942 0.315525 12.0558 1.68527 14.0559C2.37046 15.0361 3.17111 16.1292 4.21909 16.0908C5.24435 16.0491 5.62732 15.4379 6.86458 15.4379C8.09047 15.4379 8.4501 16.0908 9.5189 16.0662C10.6192 16.0491 11.312 15.0822 11.9732 14.0938C12.765 12.9716 13.083 11.8653 13.0956 11.8085C13.0704 11.7997 10.9593 10.9936 10.9379 8.55756ZM8.91888 2.57919C9.47032 1.88976 9.84761 0.951821 9.74288 0C8.94475 0.0353227 7.94662 0.551917 7.37184 1.2262C6.86331 1.82038 6.40904 2.79428 6.5264 3.71015C7.42295 3.77701 8.34348 3.25789 8.91888 2.57919Z" fill="#FBFAFF"/>
</svg>
