<svg width="22" height="23" viewBox="0 0 22 23" fill="none" xmlns="http://www.w3.org/2000/svg">
<path d="M0.937019 0.632812C0.67012 0.899712 0.492188 1.34454 0.492188 1.87834V21.362C0.492188 21.8958 0.67012 22.3406 0.937019 22.6075L1.02599 22.6965L12.0578 11.7536V11.4867L0.937019 0.632812Z" fill="url(#paint0_linear_3899_24577)"/>
<path d="M15.7072 15.402L12.0596 11.7544V11.4875L15.7072 7.83984L15.7962 7.92881L20.1555 10.4199C21.401 11.1316 21.401 12.2882 20.1555 12.9999L15.7072 15.402C15.7962 15.402 15.7072 15.402 15.7072 15.402Z" fill="url(#paint1_linear_3899_24577)"/>
<path d="M15.792 15.4006L12.0554 11.6641L0.93457 22.6069C1.3794 23.0518 2.00217 23.0518 2.80286 22.6959L15.792 15.4006Z" fill="url(#paint2_linear_3899_24577)"/>
<path d="M15.792 7.92754L2.80286 0.632299C2.00217 0.187467 1.3794 0.276433 0.93457 0.721264L12.0554 11.6641L15.792 7.92754Z" fill="url(#paint3_linear_3899_24577)"/>
<defs>
<linearGradient id="paint0_linear_3899_24577" x1="11.0617" y1="21.5586" x2="-3.72913" y2="6.59299" gradientUnits="userSpaceOnUse">
<stop stop-color="#00A0FF"/>
<stop offset="0.0066" stop-color="#00A1FF"/>
<stop offset="0.2601" stop-color="#00BEFF"/>
<stop offset="0.5122" stop-color="#00D2FF"/>
<stop offset="0.7604" stop-color="#00DFFF"/>
<stop offset="1" stop-color="#00E3FF"/>
</linearGradient>
<linearGradient id="paint1_linear_3899_24577" x1="21.7708" y1="11.6209" x2="0.192047" y2="11.6209" gradientUnits="userSpaceOnUse">
<stop stop-color="#FFE000"/>
<stop offset="0.4087" stop-color="#FFBD00"/>
<stop offset="0.7754" stop-color="#FFA500"/>
<stop offset="1" stop-color="#FF9C00"/>
</linearGradient>
<linearGradient id="paint2_linear_3899_24577" x1="6.30612" y1="16.9489" x2="-13.7514" y2="-3.34558" gradientUnits="userSpaceOnUse">
<stop stop-color="#FF3A44"/>
<stop offset="1" stop-color="#C31162"/>
</linearGradient>
<linearGradient id="paint3_linear_3899_24577" x1="-9.29323" y1="21.7964" x2="-0.336628" y2="12.734" gradientUnits="userSpaceOnUse">
<stop stop-color="#32A071"/>
<stop offset="0.0685" stop-color="#2DA771"/>
<stop offset="0.4762" stop-color="#15CF74"/>
<stop offset="0.8009" stop-color="#06E775"/>
<stop offset="1" stop-color="#00F076"/>
</linearGradient>
</defs>
</svg>
