<svg width="30" height="30" viewBox="0 0 30 30" fill="none" xmlns="http://www.w3.org/2000/svg">
<path d="M11.25 27.5H18.75C25 27.5 27.5 25 27.5 18.75V11.25C27.5 5 25 2.5 18.75 2.5H11.25C5 2.5 2.5 5 2.5 11.25V18.75C2.5 25 5 27.5 11.25 27.5Z" stroke="black" stroke-opacity="0.5" stroke-width="1.5" stroke-linecap="round" stroke-linejoin="round"/>
<path d="M11.25 12.5C12.6307 12.5 13.75 11.3807 13.75 10C13.75 8.61929 12.6307 7.5 11.25 7.5C9.86929 7.5 8.75 8.61929 8.75 10C8.75 11.3807 9.86929 12.5 11.25 12.5Z" stroke="black" stroke-opacity="0.5" stroke-width="1.5" stroke-linecap="round" stroke-linejoin="round"/>
<path d="M3.33594 23.6877L9.49844 19.5502C10.4859 18.8877 11.9109 18.9627 12.7984 19.7252L13.2109 20.0877C14.1859 20.9252 15.7609 20.9252 16.7359 20.0877L21.9359 15.6252C22.9109 14.7877 24.4859 14.7877 25.4609 15.6252L27.4984 17.3752" stroke="black" stroke-opacity="0.5" stroke-width="1.5" stroke-linecap="round" stroke-linejoin="round"/>
</svg>
