<svg width="48" height="44" viewBox="0 0 48 44" fill="none" xmlns="http://www.w3.org/2000/svg">
<path d="M1.125 16.417C1.125 12.9077 3.96986 10.0628 7.47917 10.0628C10.9885 10.0628 13.8333 12.9077 13.8333 16.417V36.7503C13.8333 40.2596 10.9885 43.1045 7.47917 43.1045C3.96986 43.1045 1.125 40.2596 1.125 36.7503V16.417Z" fill="#5D70F9"/>
<path d="M22.9208 2.92062L17.2516 12.1332C15.7294 14.6067 14.9684 15.8434 14.5082 17.1987C14.3678 17.6121 14.2488 18.0324 14.1517 18.4581C13.8333 19.8535 13.8333 21.3057 13.8333 24.21V32.9378C13.8333 38.5527 18.3851 43.1045 24 43.1045H31.3958C36.2094 43.1045 40.6098 40.3849 42.7625 36.0795L45.6816 30.2412C48.5654 24.4737 44.3714 17.6878 37.9232 17.6878H36.1701C31.7756 17.6878 28.4151 13.7708 29.0833 9.42741L29.7011 5.41214C30.0445 3.18002 28.3175 1.16699 26.0591 1.16699C24.7795 1.16699 23.5915 1.83083 22.9208 2.92062Z" fill="#5D70F9"/>
<path d="M1.125 16.417C1.125 12.9077 3.96986 10.0628 7.47917 10.0628C10.9885 10.0628 13.8333 12.9077 13.8333 16.417V36.7503C13.8333 40.2596 10.9885 43.1045 7.47917 43.1045C3.96986 43.1045 1.125 40.2596 1.125 36.7503V16.417Z" stroke="#5D70F9" stroke-width="1.5"/>
<path d="M22.9208 2.92062L17.2516 12.1332C15.7294 14.6067 14.9684 15.8434 14.5082 17.1987C14.3678 17.6121 14.2488 18.0324 14.1517 18.4581C13.8333 19.8535 13.8333 21.3057 13.8333 24.21V32.9378C13.8333 38.5527 18.3851 43.1045 24 43.1045H31.3958C36.2094 43.1045 40.6098 40.3849 42.7625 36.0795L45.6816 30.2412C48.5654 24.4737 44.3714 17.6878 37.9232 17.6878H36.1701C31.7756 17.6878 28.4151 13.7708 29.0833 9.42741L29.7011 5.41214C30.0445 3.18002 28.3175 1.16699 26.0591 1.16699C24.7795 1.16699 23.5915 1.83083 22.9208 2.92062Z" stroke="#5D70F9" stroke-width="1.5"/>
</svg>
