<svg width="18" height="18" viewBox="0 0 18 18" fill="none" xmlns="http://www.w3.org/2000/svg">
<path d="M12.0938 5.625C12.5599 5.625 12.9375 6.12862 12.9375 6.75C12.9375 7.37138 12.5599 7.875 12.0938 7.875C11.6276 7.875 11.25 7.37138 11.25 6.75C11.25 6.12862 11.6276 5.625 12.0938 5.625Z" fill="#5D70F9" fill-opacity="0.5"/>
<path d="M7.30875 6.75C7.30875 6.12825 6.93188 5.625 6.46688 5.625C6.00187 5.625 5.625 6.12825 5.625 6.75C5.625 7.37175 6 7.875 6.46688 7.875C6.93375 7.875 7.30875 7.37175 7.30875 6.75Z" fill="#5D70F9" fill-opacity="0.5"/>
<path fill-rule="evenodd" clip-rule="evenodd" d="M9.00675 10.8851C10.5783 10.8851 11.9993 10.5453 13.0199 10.3012C14.0168 10.0628 14.6318 9.91579 14.6318 10.266C14.6318 13.3726 12.1134 15.891 9.00675 15.891C5.90015 15.891 3.38175 13.3726 3.38175 10.266C3.38175 9.91579 3.99666 10.0628 4.99357 10.3012C6.01421 10.5453 7.43524 10.8851 9.00675 10.8851ZM12.4829 11.399C11.6972 11.6046 10.4928 11.9198 9 11.9198C7.50716 11.9198 6.30283 11.6046 5.51707 11.399C4.86393 11.2281 4.5 11.1329 4.5 11.3573C4.5 13.5105 7.7715 13.6073 9 13.6073C10.3792 13.6073 13.5 13.5101 13.5 11.3573C13.5 11.1329 13.1361 11.2281 12.4829 11.399Z" fill="#5D70F9" fill-opacity="0.5"/>
<path fill-rule="evenodd" clip-rule="evenodd" d="M18 9C18 4.02944 13.9706 0 9 0C4.02944 0 0 4.02944 0 9C0 13.9706 4.02944 18 9 18C13.9706 18 18 13.9706 18 9ZM16.8866 9C16.8866 4.65076 13.3609 1.125 9.01162 1.125C4.66238 1.125 1.13662 4.65076 1.13662 9C1.13662 13.3492 4.66238 16.875 9.01162 16.875C13.3609 16.875 16.8866 13.3492 16.8866 9Z" fill="#5D70F9" fill-opacity="0.5"/>
</svg>
