<svg width="30" height="30" viewBox="0 0 30 30" fill="none" xmlns="http://www.w3.org/2000/svg">
<path d="M15.6625 25.5246H7.7625C3.8125 25.5246 2.5 22.8996 2.5 20.2621V9.73711C2.5 5.78711 3.8125 4.47461 7.7625 4.47461H15.6625C19.6125 4.47461 20.925 5.78711 20.925 9.73711V20.2621C20.925 24.2121 19.6 25.5246 15.6625 25.5246Z" stroke="black" stroke-opacity="0.5" stroke-width="1.5" stroke-linecap="round" stroke-linejoin="round"/>
<path d="M24.4008 21.3752L20.9258 18.9377V11.0502L24.4008 8.61266C26.1008 7.42516 27.5008 8.15016 27.5008 10.2377V19.7627C27.5008 21.8502 26.1008 22.5752 24.4008 21.3752Z" stroke="black" stroke-opacity="0.5" stroke-width="1.5" stroke-linecap="round" stroke-linejoin="round"/>
<path d="M14.375 13.75C15.4105 13.75 16.25 12.9105 16.25 11.875C16.25 10.8395 15.4105 10 14.375 10C13.3395 10 12.5 10.8395 12.5 11.875C12.5 12.9105 13.3395 13.75 14.375 13.75Z" stroke="black" stroke-opacity="0.5" stroke-width="1.5" stroke-linecap="round" stroke-linejoin="round"/>
</svg>
