<svg width="120" height="40" viewBox="0 0 120 40" fill="none" xmlns="http://www.w3.org/2000/svg">
<rect x="0.5" y="0.5" width="119" height="39" rx="6.5" fill="black"/>
<path d="M81.5267 19.2004V21.4914H80.0906V22.9938H81.5267V28.0988C81.5267 29.842 82.3152 30.5392 84.2991 30.5392C84.6478 30.5392 84.9798 30.4977 85.2703 30.4479V28.9621C85.0213 28.987 84.8636 29.0036 84.5896 29.0036C83.7015 29.0036 83.3113 28.5886 83.3113 27.6423V22.9938H85.2703V21.4914H83.3113V19.2004H81.5267Z" fill="white"/>
<path d="M90.3242 30.6638C92.9638 30.6638 94.5825 28.8957 94.5825 25.9655C94.5825 23.0519 92.9555 21.2756 90.3242 21.2756C87.6845 21.2756 86.0576 23.0519 86.0576 25.9655C86.0576 28.8957 87.6762 30.6638 90.3242 30.6638ZM90.3242 29.0783C88.7719 29.0783 87.9003 27.9411 87.9003 25.9655C87.9003 24.0065 88.7719 22.861 90.3242 22.861C91.8681 22.861 92.748 24.0065 92.748 25.9655C92.748 27.9328 91.8681 29.0783 90.3242 29.0783Z" fill="white"/>
<path d="M95.9674 30.4894H97.752V25.152C97.752 23.882 98.7066 23.027 100.06 23.027C100.375 23.027 100.906 23.0851 101.056 23.1349V21.3752C100.865 21.3254 100.524 21.3005 100.259 21.3005C99.0802 21.3005 98.0758 21.9479 97.8184 22.8361H97.6856V21.4499H95.9674V30.4894Z" fill="white"/>
<path d="M105.487 22.7946C106.807 22.7946 107.67 23.716 107.712 25.1354H103.146C103.246 23.7243 104.167 22.7946 105.487 22.7946ZM107.703 28.049C107.371 28.7546 106.633 29.1447 105.553 29.1447C104.126 29.1447 103.204 28.1403 103.146 26.5549V26.4553H109.53V25.8327C109.53 22.9938 108.01 21.2756 105.495 21.2756C102.947 21.2756 101.328 23.11 101.328 25.9987C101.328 28.8874 102.914 30.6638 105.504 30.6638C107.571 30.6638 109.015 29.6677 109.422 28.049H107.703Z" fill="white"/>
<path d="M69.8231 27.1513C69.9607 29.371 71.8105 30.7906 74.5636 30.7906C77.506 30.7906 79.3472 29.3021 79.3472 26.9276C79.3472 25.0606 78.2975 24.0282 75.7509 23.4346L74.3829 23.099C72.7655 22.7205 72.1116 22.2129 72.1116 21.3267C72.1116 20.2082 73.1268 19.4769 74.6497 19.4769C76.095 19.4769 77.093 20.191 77.2737 21.3353H79.1493C79.0374 19.2446 77.1963 17.7734 74.6755 17.7734C71.9654 17.7734 70.1586 19.2446 70.1586 21.4557C70.1586 23.2797 71.1824 24.3637 73.4279 24.8885L75.0282 25.2757C76.6715 25.6629 77.3942 26.2307 77.3942 27.1771C77.3942 28.2783 76.2585 29.0785 74.7099 29.0785C73.0494 29.0785 71.8965 28.33 71.7331 27.1513H69.8231Z" fill="white"/>
<path d="M51.3357 21.3005C50.1072 21.3005 49.0447 21.9147 48.4969 22.944H48.3641V21.4499H46.6458V33.4943H48.4305V29.1198H48.5716C49.0447 30.0744 50.0657 30.6388 51.3523 30.6388C53.6351 30.6388 55.0877 28.8376 55.0877 25.9655C55.0877 23.0934 53.6351 21.3005 51.3357 21.3005ZM50.8294 29.0368C49.3353 29.0368 48.3973 27.8581 48.3973 25.9738C48.3973 24.0812 49.3353 22.9025 50.8377 22.9025C52.3484 22.9025 53.2532 24.0563 53.2532 25.9655C53.2532 27.883 52.3484 29.0368 50.8294 29.0368Z" fill="white"/>
<path d="M61.3325 21.3005C60.104 21.3005 59.0415 21.9147 58.4937 22.944H58.3609V21.4499H56.6426V33.4943H58.4273V29.1198H58.5684C59.0415 30.0744 60.0625 30.6388 61.3491 30.6388C63.6319 30.6388 65.0845 28.8376 65.0845 25.9655C65.0845 23.0934 63.6319 21.3005 61.3325 21.3005ZM60.8262 29.0368C59.3321 29.0368 58.3941 27.8581 58.3941 25.9738C58.3941 24.0812 59.3321 22.9025 60.8345 22.9025C62.3452 22.9025 63.25 24.0563 63.25 25.9655C63.25 27.883 62.3452 29.0368 60.8262 29.0368Z" fill="white"/>
<path d="M43.4438 30.4894H45.4914L41.009 18.0746H38.9356L34.4531 30.4894H36.4319L37.5762 27.1943H42.3081L43.4438 30.4894ZM39.8733 20.3287H40.0196L41.8177 25.5768H38.0666L39.8733 20.3287Z" fill="white"/>
<path d="M35.6504 8.71265V14.7017H37.8127C39.5974 14.7017 40.6309 13.6018 40.6309 11.6885C40.6309 9.8042 39.5891 8.71265 37.8127 8.71265H35.6504ZM36.5801 9.55933H37.709C38.95 9.55933 39.6846 10.3479 39.6846 11.7009C39.6846 13.0747 38.9624 13.855 37.709 13.855H36.5801V9.55933Z" fill="white"/>
<path d="M43.7959 14.7888C45.1158 14.7888 45.9251 13.9048 45.9251 12.4397C45.9251 10.9829 45.1116 10.0947 43.7959 10.0947C42.4761 10.0947 41.6626 10.9829 41.6626 12.4397C41.6626 13.9048 42.472 14.7888 43.7959 14.7888ZM43.7959 13.9961C43.0198 13.9961 42.584 13.4275 42.584 12.4397C42.584 11.4602 43.0198 10.8875 43.7959 10.8875C44.5679 10.8875 45.0079 11.4602 45.0079 12.4397C45.0079 13.4233 44.5679 13.9961 43.7959 13.9961Z" fill="white"/>
<path d="M52.8172 10.1819H51.9249L51.1197 13.6309H51.0492L50.1195 10.1819H49.2645L48.3348 13.6309H48.2684L47.4591 10.1819H46.5543L47.7994 14.7017H48.7167L49.6463 11.373H49.7169L50.6507 14.7017H51.5763L52.8172 10.1819Z" fill="white"/>
<path d="M53.8449 14.7017H54.7372V12.0579C54.7372 11.3523 55.1564 10.9124 55.8163 10.9124C56.4762 10.9124 56.7916 11.2734 56.7916 11.9998V14.7017H57.684V11.7756C57.684 10.7007 57.1278 10.0947 56.1193 10.0947C55.4386 10.0947 54.9904 10.3977 54.7704 10.8999H54.704V10.1819H53.8449V14.7017Z" fill="white"/>
<path d="M59.0893 14.7017H59.9816V8.41797H59.0893V14.7017Z" fill="white"/>
<path d="M63.3376 14.7888C64.6575 14.7888 65.4668 13.9048 65.4668 12.4397C65.4668 10.9829 64.6533 10.0947 63.3376 10.0947C62.0178 10.0947 61.2043 10.9829 61.2043 12.4397C61.2043 13.9048 62.0137 14.7888 63.3376 14.7888ZM63.3376 13.9961C62.5615 13.9961 62.1257 13.4275 62.1257 12.4397C62.1257 11.4602 62.5615 10.8875 63.3376 10.8875C64.1096 10.8875 64.5496 11.4602 64.5496 12.4397C64.5496 13.4233 64.1096 13.9961 63.3376 13.9961Z" fill="white"/>
<path d="M68.1255 14.0251C67.6399 14.0251 67.2872 13.7886 67.2872 13.3818C67.2872 12.9834 67.5694 12.7717 68.1919 12.7302L69.2959 12.6597V13.0374C69.2959 13.5977 68.7979 14.0251 68.1255 14.0251ZM67.8973 14.7764C68.4908 14.7764 68.9847 14.519 69.2544 14.0667H69.325V14.7017H70.1841V11.6138C70.1841 10.6592 69.545 10.0947 68.4119 10.0947C67.3868 10.0947 66.6563 10.5928 66.565 11.3689H67.4283C67.5279 11.0493 67.8724 10.8667 68.3704 10.8667C68.9805 10.8667 69.2959 11.1365 69.2959 11.6138V12.0039L68.0716 12.0745C66.9966 12.1409 66.3907 12.6099 66.3907 13.4233C66.3907 14.2493 67.0257 14.7764 67.8973 14.7764Z" fill="white"/>
<path d="M73.2123 14.7764C73.8348 14.7764 74.3619 14.4817 74.6317 13.9878H74.7022V14.7017H75.5572V8.41797H74.6649V10.8999H74.5985C74.3536 10.4019 73.8307 10.1072 73.2123 10.1072C72.0709 10.1072 71.3363 11.012 71.3363 12.4397C71.3363 13.8716 72.0626 14.7764 73.2123 14.7764ZM73.4654 10.9082C74.2125 10.9082 74.6815 11.5017 74.6815 12.4438C74.6815 13.3901 74.2166 13.9753 73.4654 13.9753C72.7101 13.9753 72.2577 13.3984 72.2577 12.4397C72.2577 11.4893 72.7142 10.9082 73.4654 10.9082Z" fill="white"/>
<path d="M81.3437 14.7888C82.6635 14.7888 83.4729 13.9048 83.4729 12.4397C83.4729 10.9829 82.6594 10.0947 81.3437 10.0947C80.0239 10.0947 79.2104 10.9829 79.2104 12.4397C79.2104 13.9048 80.0197 14.7888 81.3437 14.7888ZM81.3437 13.9961C80.5676 13.9961 80.1318 13.4275 80.1318 12.4397C80.1318 11.4602 80.5676 10.8875 81.3437 10.8875C82.1157 10.8875 82.5556 11.4602 82.5556 12.4397C82.5556 13.4233 82.1157 13.9961 81.3437 13.9961Z" fill="white"/>
<path d="M84.6541 14.7017H85.5464V12.0579C85.5464 11.3523 85.9656 10.9124 86.6255 10.9124C87.2854 10.9124 87.6008 11.2734 87.6008 11.9998V14.7017H88.4932V11.7756C88.4932 10.7007 87.937 10.0947 86.9285 10.0947C86.2478 10.0947 85.7996 10.3977 85.5796 10.8999H85.5132V10.1819H84.6541V14.7017Z" fill="white"/>
<path d="M92.6029 9.05713V10.2026H91.8849V10.9539H92.6029V13.5063C92.6029 14.3779 92.9972 14.7266 93.9891 14.7266C94.1634 14.7266 94.3294 14.7058 94.4747 14.6809V13.938C94.3502 13.9504 94.2713 13.9587 94.1344 13.9587C93.6903 13.9587 93.4952 13.7512 93.4952 13.2781V10.9539H94.4747V10.2026H93.4952V9.05713H92.6029Z" fill="white"/>
<path d="M95.6725 14.7017H96.5648V12.062C96.5648 11.3772 96.9716 10.9165 97.702 10.9165C98.3329 10.9165 98.6691 11.2817 98.6691 12.0039V14.7017H99.5614V11.7839C99.5614 10.709 98.9679 10.0989 98.005 10.0989C97.3244 10.0989 96.8471 10.4019 96.6271 10.9082H96.5565V8.41797H95.6725V14.7017Z" fill="white"/>
<path d="M102.78 10.8542C103.44 10.8542 103.872 11.3149 103.893 12.0247H101.61C101.66 11.3191 102.121 10.8542 102.78 10.8542ZM103.889 13.4814C103.723 13.8342 103.353 14.0293 102.814 14.0293C102.1 14.0293 101.639 13.5271 101.61 12.7344V12.6846H104.802V12.3733C104.802 10.9539 104.042 10.0947 102.785 10.0947C101.51 10.0947 100.701 11.012 100.701 12.4563C100.701 13.9006 101.494 14.7888 102.789 14.7888C103.822 14.7888 104.544 14.2908 104.748 13.4814H103.889Z" fill="white"/>
<path d="M24.77 20.2991C24.7916 18.6181 25.6944 17.0275 27.1265 16.147C26.2231 14.8567 24.7098 14.0386 23.1354 13.9894C21.4561 13.8131 19.8282 14.9942 18.9725 14.9942C18.1002 14.9942 16.7827 14.0069 15.364 14.0361C13.5147 14.0958 11.7907 15.1472 10.891 16.7639C8.95705 20.1123 10.3996 25.0334 12.2522 27.74C13.1791 29.0654 14.2624 30.5458 15.6799 30.4933C17.0669 30.4358 17.585 29.6088 19.2593 29.6088C20.918 29.6088 21.4041 30.4933 22.8503 30.4599C24.3387 30.4358 25.2764 29.1287 26.1708 27.7908C26.8368 26.8464 27.3492 25.8027 27.6892 24.6983C25.9401 23.9585 24.772 22.1982 24.77 20.2991Z" fill="white"/>
<path d="M22.0383 12.2094C22.8498 11.2352 23.2496 9.98298 23.1528 8.71875C21.913 8.84897 20.7677 9.44153 19.9452 10.3784C19.141 11.2937 18.7224 12.5238 18.8015 13.7397C20.0418 13.7525 21.2611 13.176 22.0383 12.2094Z" fill="white"/>
<rect x="0.5" y="0.5" width="119" height="39" rx="6.5" stroke="#A6A6A6"/>
</svg>
