<svg width="56" height="56" viewBox="0 0 56 56" fill="none" xmlns="http://www.w3.org/2000/svg">
<rect x="4" y="4" width="48" height="48" rx="24" fill="#3C41F0"/>
<path d="M38.0014 32.9201V35.9201C38.0025 36.1986 37.9455 36.4743 37.8339 36.7294C37.7223 36.9846 37.5587 37.2137 37.3535 37.402C37.1483 37.5902 36.906 37.7336 36.6421 37.8228C36.3783 37.912 36.0988 37.9452 35.8214 37.9201C32.7442 37.5857 29.7884 36.5342 27.1914 34.8501C24.7752 33.3148 22.7267 31.2663 21.1914 28.8501C19.5014 26.2413 18.4496 23.2711 18.1214 20.1801C18.0964 19.9036 18.1293 19.6249 18.2179 19.3617C18.3065 19.0986 18.449 18.8568 18.6362 18.6517C18.8234 18.4466 19.0512 18.2828 19.3052 18.1706C19.5592 18.0584 19.8337 18.0004 20.1114 18.0001H23.1114C23.5967 17.9953 24.0672 18.1672 24.4352 18.4836C24.8031 18.8001 25.0435 19.2395 25.1114 19.7201C25.238 20.6802 25.4728 21.6228 25.8114 22.5301C25.9459 22.888 25.9751 23.277 25.8953 23.651C25.8155 24.0249 25.6303 24.3682 25.3614 24.6401L24.0914 25.9101C25.515 28.4136 27.5879 30.4865 30.0914 31.9101L31.3614 30.6401C31.6333 30.3712 31.9766 30.1859 32.3505 30.1062C32.7245 30.0264 33.1135 30.0556 33.4714 30.1901C34.3787 30.5286 35.3213 30.7635 36.2814 30.8901C36.7672 30.9586 37.2108 31.2033 37.5279 31.5776C37.8451 31.9519 38.0136 32.4297 38.0014 32.9201Z" stroke="white" stroke-width="2" stroke-linecap="round" stroke-linejoin="round"/>
<rect x="4" y="4" width="48" height="48" rx="24" stroke="#F9F5FF" stroke-width="8"/>
</svg>
