<svg width="85" height="84" viewBox="0 0 85 84" fill="none" xmlns="http://www.w3.org/2000/svg">
<path d="M32 77H25C11 77 7.5 73.5 7.5 59.5V24.5C7.5 10.5 11 7 25 7H30.25C35.5 7 36.6551 8.54004 38.6501 11.2L43.9001 18.2C45.2301 19.95 46 21 49.5 21H60C74 21 77.5 24.5 77.5 38.5V45.5" stroke="white" stroke-width="1.5" stroke-miterlimit="10" stroke-linecap="round" stroke-linejoin="round"/>
<path d="M48.66 64.1194C40.435 64.7144 40.435 76.6144 48.66 77.2094H68.1199C70.4649 77.2094 72.775 76.3343 74.49 74.7593C80.265 69.7193 77.1849 59.6393 69.5899 58.6943C66.8599 42.2793 43.13 48.5093 48.73 64.1543" stroke="white" stroke-width="1.5" stroke-miterlimit="10" stroke-linecap="round" stroke-linejoin="round"/>
</svg>
